<?xml version="1.0" encoding="utf-8"?>
<!-- Generator: Adobe Illustrator 26.2.1, SVG Export Plug-In . SVG Version: 6.00 Build 0)  -->
<svg version="1.1" id="Layer_1" xmlns="http://www.w3.org/2000/svg" xmlns:xlink="http://www.w3.org/1999/xlink" x="0px" y="0px"
	 viewBox="0 0 600 600" style="enable-background:new 0 0 600 600;" xml:space="preserve">
<g>
	<path d="M87.4,365.2c0.7-3.6,1.2-7.2,2-10.7c9.3-38.2,33.1-62.3,70.8-72.8c10.7-3,21.5-5.7,32.2-8.5c9.1-2.4,15.9-7.6,20.5-15.7
		c3.7-6.5,7.2-13.1,10.9-19.5c25-42.6,80.4-51.3,117.2-18.5c0.7,0.7,1.5,1.3,2.4,2.2c0.9-0.8,1.9-1.6,2.7-2.5
		c17.2-17.2,34.5-34.4,51.6-51.7c1.6-1.6,2.8-3.8,3.7-5.9c1.7-4.4,2.8-9.1,4.6-13.5c2.2-5.3,4.8-10.5,7.6-16.7
		c-1.9-2.8-9.1-6.4-2.9-12.2c5.7-5.3,9.1,1.2,13.1,4.3c2.9-2.9,5.7-5.8,8.5-8.7c-6.3-7.9-7-10.5-4-13.5c3.2-3.2,5.7-2.4,13.3,4.1
		c2.6-3,5.3-6,8.2-9.3c-2.3-3.4-9.5-6.9-3.2-12.8c5.7-5.3,9,1.3,13.3,4.5c5-7.7,10.5-7.7,17-1.7c1.8,1.7,5.2,1.8,8,2.1
		c16.5,1.8,26.1,11.6,28.1,28c0.5,3.7,1.9,7.7,4,10.8c3.4,5.2,3.7,7.1-0.7,11.6c-0.9,0.9-1.7,1.8-2,2.1c1.9,3.8,3.9,7,5.2,10.6
		c0.3,0.9-1,2.9-2.1,3.9c-3,2.9-5.8,1.9-12.9-4.3c-2.7,2.9-5.4,5.8-8.4,9c2.5,3.7,9.6,7.3,3.4,13.1c-5.7,5.2-9.1-1.3-13-4.2
		c-3,2.9-5.8,5.7-8.7,8.6c6.4,7.8,7.2,10.5,4.1,13.6c-3.2,3.1-5.6,2.3-13.3-4.2c-7.7,8.6-19.2,8.8-29,13.1c-1.5,0.7-3.3,1.1-4.4,2.2
		c-18.6,18.4-37.1,36.9-55.8,55.6c7.7,8,13.6,17,17.4,27.3c12.7,34.2-0.6,72.6-31.8,91.4c-6.7,4.1-13.7,7.8-20.6,11.6
		c-8.6,4.7-14.1,11.8-16.5,21.3c-3.1,12.1-5.9,24.3-9.7,36.2c-12.6,38.8-39.3,61.5-79.8,67.6c-0.8,0.1-1.6,0.5-2.4,0.7
		c-5.9,0-11.8,0-17.7,0c-0.8-0.2-1.6-0.6-2.4-0.7c-21.1-2.5-39.4-11-54.6-25.8c-16.2-15.8-32.2-31.8-48-48
		c-11.2-11.5-18.7-25.2-22.7-40.7c-1.3-5.1-2.2-10.4-3.3-15.6C87.4,377,87.4,371.1,87.4,365.2z M334.5,230.7
		c-1.4-1.3-2.6-2.5-3.8-3.5c-29.4-24.9-74.6-17.7-94.6,15.2c-4.3,7.1-8.1,14.4-12.3,21.6c-6.2,10.8-15.2,17.9-27.2,21.2
		c-11.5,3.1-23.1,6-34.6,9.2C100.1,311,79.3,386.2,124,432c15.1,15.5,30.4,30.9,46,45.9c45.1,43.2,118.6,23.5,136.2-36.4
		c3.4-11.6,6.3-23.3,9.3-35c3.4-13.3,10.9-23.2,23-29.8c6.9-3.8,13.9-7.5,20.5-11.6c33.3-20.7,40.1-66.7,14.1-95.6
		c-0.8-0.9-1.7-1.7-2.9-2.7c-7.1,7.1-14,13.9-20.7,20.9c-0.8,0.8-0.7,2.8-0.4,4.1c2.2,8,2.7,16.1,1.5,24.3
		c-3.5,23.5-21.6,42.2-45.3,47.2c-22.8,4.8-46.9-5.6-59.4-25.6c-12.6-20.1-11.4-46.2,3-64.9c7.3-9.5,16.8-16.2,28.3-19.7
		c3.9-1.2,7.2,0.4,8.3,3.6c1.2,3.5-0.4,6.7-4.4,8.3c-0.8,0.3-1.6,0.5-2.4,0.8c-19.7,7.3-31.5,27.6-28.4,48.5
		c3.1,20.3,20.3,35.9,41,37.4c20.6,1.4,40-12.3,45.5-32.3c1.7-6.3,2.4-12.7,0.6-19.8c-5.8,6.3-11.7,11-14.2,19.4
		c-4.1,13.7-19.4,21.9-33.1,19.8c-15.6-2.4-26.7-14.3-27.5-29.6c-0.8-15,8.7-28.3,23.1-32.4c2.3-0.7,4.6-2,6.3-3.6
		c13.1-12.9,26.1-26,39.2-39C332.4,233,333.3,232,334.5,230.7z M504.7,132.1c-0.4-0.7-0.7-1.2-0.8-1.7c-1.2-4.6-2.8-9.1-3.5-13.8
		c-1.3-9.3-6.5-14.5-15.9-15.7c-4.3-0.6-8.6-1.6-12.6-3.2c-2.5-1-3.7-0.6-5.4,1.1c-14.7,14.8-29.4,29.4-44.1,44.2
		c-1.2,1.2-2.3,2.9-2.9,4.5c-1.9,5.3-3.4,10.7-5.4,15.9c-1,2.5-0.3,4,1.5,5.8c5.6,5.3,11,10.8,16.4,16.4c1.6,1.7,3,2.4,5.5,1.4
		c4.4-1.7,9.1-2.9,13.6-4.6c2.3-0.9,4.9-1.7,6.6-3.3c15.1-14.9,30.1-30,45.1-45C503.6,133.6,504.1,132.8,504.7,132.1z M388.5,196.7
		c-27.1,27.1-54.4,54.4-81.6,81.6c7.4,3.1,13,8.9,16.5,16.4c27.3-27.3,54.6-54.5,81.6-81.5C399.5,207.7,393.8,202,388.5,196.7z
		 M294.2,288.4c-10.6,0.1-18.9,8.6-18.8,19.2c0.1,10.4,8.5,18.7,18.8,18.8c10.5,0,19-8.5,19-19C313.3,296.7,304.8,288.3,294.2,288.4
		z M398.1,185.8c5.9,6,11.7,11.8,16.8,17c2.6-2.3,5.6-4.9,7.9-6.9c-5.9-5.9-11.7-11.7-17.3-17.4C403,180.8,400.3,183.6,398.1,185.8z
		"/>
	<path d="M251.9,419.2c-1,1.8-1.6,3.6-2.8,4.9c-5.6,5.8-11.2,11.4-17,17c-3.4,3.3-6.6,3.3-10-0.1c-20.5-20.4-41-40.9-61.5-61.5
		c-3.5-3.5-3.4-6.8,0-10.3c5.4-5.5,10.9-11,16.4-16.4c3.6-3.5,6.8-3.7,10.3-0.2c20.5,20.4,41,40.9,61.5,61.5
		C250.2,415.4,250.8,417.4,251.9,419.2z M192,392c6,6.2,11.7,12,17.1,17.5c2.9-2.6,5.8-5.4,8.1-7.5c-6-6-11.8-11.8-17.3-17.3
		C197.4,386.9,194.6,389.6,192,392z M181.7,382.5c3.2-2.9,6.2-5.6,8.6-7.7c-2.7-3.1-5.2-6-7.7-8.9c-3,3.1-5.8,6-8.7,8.9
		C176.7,377.5,179.4,380.2,181.7,382.5z M219.1,418.5c2.9,3.4,5.4,6.4,7.3,8.6c3.3-2.8,6.4-5.3,8.7-7.3c-2.8-3.2-5.4-6.2-8-9.2
		C224.2,413.6,221.4,416.3,219.1,418.5z"/>
</g>
</svg>
