<?xml version="1.0" encoding="utf-8"?>
<!-- Generator: Adobe Illustrator 26.2.1, SVG Export Plug-In . SVG Version: 6.00 Build 0)  -->
<svg version="1.1" id="Layer_1" xmlns="http://www.w3.org/2000/svg" xmlns:xlink="http://www.w3.org/1999/xlink" x="0px" y="0px"
	 viewBox="0 0 600 600" style="enable-background:new 0 0 600 600;" xml:space="preserve">
<g>
	<path d="M488.4,523.1c-2.2,0-4.5,0-6.7,0c-2.9-1.8-6-3.5-8.8-5.5c-24.8-17.9-49.5-35.8-74.2-53.7c-1.1-0.8-3-1.7-3.9-1.3
		c-6.9,3.2-12.3,0.9-17.6-3.6c-19.9-16.6-39.9-33.1-59.9-49.7c-8.8-7.3-17.6-14.5-26.5-21.9c-0.9,0.7-1.6,1.1-2.2,1.6
		c-13.2,10.9-26.4,21.9-39.6,32.8c-15.4,12.7-30.7,25.4-46.1,38.2c-4.4,3.6-9.2,5.4-14.7,3c-2.3-1-3.7-0.6-5.6,0.7
		c-13.3,9.7-26.6,19.4-39.9,29c-14.3,10.2-28.7,20.2-43,30.2c-2.2,0-4.5,0-6.7,0c-7.6-3.5-13.3-9.1-16.8-16.8c0-2.2,0-4.5,0-6.7
		c1.7-2.8,3.3-5.8,5.2-8.5c17.9-24.8,35.9-49.5,53.7-74.2c0.9-1.2,1.9-3.2,1.4-4.2c-3.1-6.9-0.8-12.3,3.7-17.6
		c15.3-18.3,30.5-36.7,45.7-55.1c6.4-7.7,12.8-15.5,19.3-23.3c-8-6.6-15.7-13.1-23.5-19.3c-1.1-0.8-2.8-1.2-4.2-1.2
		c-17.1,0-33.1-4.1-48.2-12c-1.2-0.7-3.2-0.8-4.5-0.3c-4.1,1.4-7.7,0.9-10.8-2.2c-8.2-8.1-16.4-16.3-24.6-24.6
		c-3-3.1-3.5-6.7-2.1-10.8c0.5-1.5,0.4-3.6-0.1-5.2c-2.6-7.5-5.7-14.8-8-22.4c-1.5-4.7-2-9.8-2.9-14.7c0-5.9,0-11.7,0-17.6
		c1-5.2,1.7-10.4,3-15.5C95.3,107.5,164.4,76,223,105.1c1.4,0.7,3.6,0.7,5.2,0.1c4.1-1.4,7.8-0.9,10.8,2.1
		c8.2,8.1,16.4,16.3,24.6,24.6c2.9,3,3.4,6.5,2.2,10.4c-0.4,1.5-0.4,3.6,0.3,4.9c7.9,15.1,12,31.2,12,48.2c0,1.2,0.1,2.7,0.8,3.5
		c3.8,4.8,7.7,9.4,11.8,14.3c3.8-4.6,7.4-8.7,10.7-13c1.1-1.4,1.8-3.5,1.8-5.2c0.1-16.9,4.1-32.8,12-47.8c0.7-1.3,0.7-3.4,0.3-4.9
		c-1.1-3.8-0.9-7.3,1.9-10.1c8.3-8.5,16.7-16.9,25.2-25.2c3-2.9,6.7-3.8,10.4-1.8c2.3,1.2,3.8,0.6,5.7-0.3c21-10.4,43-13.7,65.9-8.8
		c65.8,14.2,99.4,84.4,69.6,144.8c-0.7,1.3-0.7,3.4-0.2,4.8c1.5,4.1,1.2,7.8-1.8,10.9c-8.3,8.5-16.7,16.8-25.2,25.1
		c-2.7,2.7-6.1,2.9-9.8,2c-1.8-0.4-4.1-0.4-5.6,0.4c-14.8,7.7-30.4,11.6-47,11.7c-1.5,0-3.3,0-4.3,0.8c-8,6.4-15.9,13-24,19.7
		c1.3,1.6,2.3,2.9,3.4,4.2c6,7.3,12.2,14.6,18.1,21.9c2.8,3.5,2.6,7.3-0.4,9.6c-2.9,2.3-6.3,1.8-9.2-1.5c-3-3.5-5.9-7.1-8.8-10.6
		c-4.2-5.1-8.5-10.2-12.9-15.5c-22.2,18.3-43.9,36.4-65.9,54.6c29.5,24.4,58.6,48.5,87.1,72c15.5-15.5,30.5-30.5,45.7-45.8
		c-0.8-1-1.9-2.4-3.1-3.8c-7.5-9-15-18-22.4-27.1c-2.7-3.3-2.4-7,0.3-9.3c2.8-2.3,6.6-2,9.2,1.2c8.7,10.4,17.3,20.8,25.9,31.3
		c3.4,4.1,3.8,8.7,2,13.8c-0.5,1.3-0.2,3.5,0.6,4.7c6.4,9.1,13,18.1,19.6,27.2c12,16.5,23.9,33,35.9,49.5c5.7,7.9,5.3,15-1.7,21.7
		C496.2,517.9,492.1,520.3,488.4,523.1z M283,242.3c-45.3,54.7-90.5,109.3-135,163.1c15.5,15.5,30.5,30.6,45.8,45.9
		c54.1-44.8,108.7-89.9,163.1-135C332.1,291.5,307.7,267.1,283,242.3z M328.8,139.3c8.6,8.6,17.2,17.1,25.8,25.7
		c19.7,19.6,39.3,39.3,58.9,58.9c4.2,4.2,4.8,7.9,1.8,10.8c-3.1,3-6.4,2.3-10.8-2c-0.1-0.1-0.2-0.2-0.3-0.3
		c-25-25-49.9-49.9-74.9-74.9c-1-1-2.1-2-3.5-3.2c-6.5,12.5-9.7,25.4-10.1,38.9c-0.1,3.1,0.7,5.4,3,7.7
		c24.6,24.4,49.4,48.6,73.3,73.6c7.3,7.6,14.4,10.5,24.5,8.4c9.9-2,19.5-4.4,28.8-9.6c-6-5.9-11.7-11.5-17.3-17.1
		c-3.2-3.2-3.4-6.9-0.7-9.6c2.6-2.6,6.3-2.3,9.6,0.8c2.1,2,4.2,4.1,6.2,6.2c5.6,5.7,11.3,11.5,16.6,16.9
		c7.2-7.2,13.8-13.8,19.9-19.9c-43.6-43.6-87.5-87.5-131.1-131.1C342.5,125.6,335.9,132.2,328.8,139.3z M97.8,233.3
		c39.3-39.2,78.5-78.5,117.6-117.6c-27.5-15-70.8-13.1-100.9,17.1C84.4,163,82.9,206.3,97.8,233.3z M483.3,233.6
		c14.9-26.3,14.3-70.9-17.5-101.9c-31.5-30.7-75.7-29.9-100-15.7C404.9,155.2,444.1,194.5,483.3,233.6z M255.9,155
		c-39.8,39.8-79.3,79.3-118.7,118.7c9.1,5.9,31,11.3,41.2,9.8c1.2-0.2,2.5-1.1,3.4-2c27.3-27.2,54.5-54.4,81.7-81.7
		c0.9-0.9,2-2.2,2-3.4C265.8,181.6,262.5,167.7,255.9,155z M120.8,269.8c43.6-43.6,87.4-87.3,130.8-130.7
		c-6.4-6.4-13.2-13.2-19.5-19.5c-43.5,43.5-87.3,87.3-130.7,130.7C107.7,256.6,114.4,263.3,120.8,269.8z M388.8,289.9
		c-26.7-26.7-52.9-53-79.4-79.4c-5.8,7.1-11.9,14.4-17.4,21c25.5,25.5,50.6,50.6,75.8,75.8C374.6,301.6,381.9,295.6,388.8,289.9z
		 M145.9,423.8c-0.4,0.5-1,1.2-1.6,2c-17.9,24.6-35.6,49.3-53.6,73.8c-2.6,3.5-1.3,5.3,1.2,7.7c2.5,2.4,4.2,4.2,8,1.4
		c15.8-11.8,31.8-23.2,47.7-34.7c9.5-6.9,18.9-13.7,28.1-20.4C165.6,443.5,155.7,433.7,145.9,423.8z M405.7,453.4
		c0.7,0.5,1.5,1.2,2.4,1.9c24.5,17.8,49.1,35.5,73.5,53.4c3.5,2.6,5.3,1.3,7.7-1.2c2.4-2.5,4.1-4.3,1.4-8
		c-12.2-16.4-24.2-33.1-36.2-49.7c-6.4-8.8-12.7-17.6-18.9-26.1C425.5,433.7,415.6,443.5,405.7,453.4z M213.2,307
		c23.2-28,46.2-55.8,69.3-83.7c-3.9-4.7-7.5-9-10.6-12.8c-26.6,26.6-53,52.9-79.5,79.3C199.1,295.3,206.1,301.1,213.2,307z"/>
	<path d="M265.5,523.1c-6.6-5.1-7.2-7.3-4.4-15.3c3.2-8.9,6.3-17.8,9.7-27.4c-3.9,0-7.3,0-10.7,0c-9-0.1-13.4-6.4-10.4-14.9
		c1.7-4.9,3.4-9.7,5.2-14.6c1.6-4.2,5-5.9,8.5-4.6c3.3,1.3,4.7,4.7,3.4,8.7c-1.3,4.1-2.8,8.1-4.5,12.7c5.2,0,9.9-0.1,14.5,0
		c7.1,0.1,10.2,4.4,7.9,11c-3.2,9.1-6.5,18.1-9.7,27.2c-0.5,1.3-0.8,2.6-1.2,3.9c0.4,0.2,0.7,0.4,1.1,0.6
		c10.9-17.1,21.7-34.1,33.1-52c-3.4,0-5.9,0-8.5,0c-8.4-0.1-13.1-6.5-10.3-14.4c3.2-9.2,6.5-18.3,10.1-28.2c-6,0-11.5-0.1-17,0.1
		c-0.8,0-2,1.3-2.4,2.2c-1.2,2.7-1.9,5.5-3,8.2c-1.5,3.7-4.8,5.2-8.1,3.9c-3.4-1.3-4.8-4.4-3.6-8.2c1.2-3.8,2.6-7.6,4-11.4
		c1.8-4.9,5.3-7.4,10.5-7.4c7.4,0,14.8-0.1,22.2,0c8.2,0.1,12.7,6.5,10,14.4c-2.9,8.4-6,16.8-8.9,25.2c-0.3,0.8-0.5,1.6-1,3.1
		c3.5,0,6.6-0.1,9.7,0c8.9,0.2,13.6,8.3,8.9,15.9c-11.8,18.9-23.9,37.7-36,56.5c-1.2,1.9-3.3,3.2-5,4.8
		C275,523.1,270.3,523.1,265.5,523.1z"/>
	<path d="M254.9,367.3c-8.4-0.4-16.1-5-20.5-14.3c-4.4-9.3-3.7-18.7,3.2-26.2c11.6-12.6,23.8-24.8,36.4-36.4
		c9.3-8.5,24.2-7.2,33.1,1.7c8.9,9,10.3,23.8,1.7,33.1c-11.6,12.6-24,24.5-36.3,36.4C268.2,365.9,262.6,367.4,254.9,367.3z
		 M301.7,308.7c-0.1-3.8-2.3-7.6-6.8-9.8c-4.7-2.3-9.4-1.9-13.3,1.6c-4,3.5-7.8,7.2-11.3,11.2c-3.4,3.9-4,8.5-1.7,13.3
		c2.2,4.6,6.1,6.9,11,7C287.2,332.1,301.6,317.6,301.7,308.7z M255.6,326.1c-3.4,3.5-6.5,6.3-9,9.6c-3.4,4.6-2.6,11.3,1.4,15.4
		c4,4.1,10.6,5.2,15.3,1.8c3.4-2.5,6.3-5.7,9.9-9.1C264.4,340.6,258.7,335.3,255.6,326.1z"/>
</g>
</svg>
