<?xml version="1.0" encoding="utf-8"?>
<!-- Generator: Adobe Illustrator 26.2.1, SVG Export Plug-In . SVG Version: 6.00 Build 0)  -->
<svg version="1.1" id="Layer_1" xmlns="http://www.w3.org/2000/svg" xmlns:xlink="http://www.w3.org/1999/xlink" x="0px" y="0px"
	 viewBox="0 0 600 600" style="enable-background:new 0 0 600 600;" xml:space="preserve">
<g id="Group_1">
	<path id="Path_2" d="M210.3,94.1c19.2,5.8,25.1,21.5,27.9,38.8c4.6,27.7,8.3,55.6,12.5,83.9c7.7-6,15.7-9.9,25.6-8.3
		c9.1,1.8,17.2,6.9,22.7,14.4c5.6-8.5,14.8-13.9,24.9-14.7c10.7-0.6,18.9,4.5,26.4,12c5.6-20.9,11.1-41.2,16.6-61.5
		c2.2-10.3,6.4-20.1,12.3-28.9c7.2-10.3,19.9-15.1,32.1-12.2c11.9,2.1,20.5,8.2,24,20.2c2.1,8.3,2.4,17,0.9,25.4
		c-3,22.9-5.8,45.8-8.6,68.7c-2.9,22.6-5.6,45.3-8.7,67.9c-3.6,24.4-5.3,49.1-5.1,73.8c0,11.2-0.7,22.4-2.1,33.5
		c-1.6,11.2-6.4,21.7-13.7,30.3c-4.9,6.1-7.4,13.8-6.8,21.7c0.5,8.1,0,16.3-1.6,24.2c-3.3,12.8-14.9,21.7-28.1,21.5
		c-46.1,0.1-92.2,0.1-138.4,0c-16.6-0.3-29.9-14-29.7-30.6c-0.2-7.9,0.1-15.8-0.2-23.7c-0.2-2.2-1-4.2-2.5-5.8
		c-13.5-13.3-22.7-30.4-26.6-48.9c-1.9-12.7-1.9-25.6-0.1-38.3c0.2-7.8,2.9-15.3,7.7-21.5c3.1-3.3,6.5-6.2,10.3-8.8
		c1.9-0.9,3-3,2.7-5.1c-2.2-28.2-4.4-56.5-6.4-84.7c-2-26.6-3.9-53.3-5.9-80c-1.1-9.8-1.6-19.7-1.5-29.6
		c1.3-15.8,12.4-29.1,27.8-33.1c0.6-0.2,1.2-0.4,1.8-0.7H210.3z M248.9,355.8c-6.2,5.6-12.2,11.2-18.4,16.4
		c-2.1,1.8-4.7,2.9-7.4,3.2c-3.4,0.3-5.5-2.4-6.7-5.4c-1.1-3-0.1-6.4,2.5-8.3c6.5-5.9,13.6-11.3,19.7-17.7c9-9.4,17.8-19.1,26-29.3
		c7.9-9.7,3-23.3-2.6-29.5c-3.8-4.3-7.1-5.4-12.1-3c-3.3,1.7-6.1,4.1-8.4,7c-6.9,8.3-12.9,17.4-20.1,25.4
		c-8.7,10.1-19.1,18.6-30.8,25.1c-5.2,2.5-8.9,7.2-9.9,12.8c-2.7,13.1-3.1,26.6-1.2,39.8c3.2,16.8,11.9,32.1,24.8,43.3
		c3,2.5,4.7,6.2,4.5,10.1c-0.2,8.7-0.1,17.4,0,26.1c0,11.5,6.1,17.7,17.5,17.7c44.1,0,88.2,0,132.4,0c11.3,0,17.3-6,17.4-17.3
		c0.1-8.2,0.1-16.3,0-24.5c-0.3-4.2,1-8.3,3.7-11.5c1.9-2.2,3.5-4.7,5.2-7.1c7.8-9.8,12.3-21.8,13-34.3c0.5-12.7,1.1-25.4,0.8-38.1
		c0-16.6,1.3-33.1,3.8-49.5c2.6-20.3,5-40.5,7.6-60.8c2.5-20.3,5.1-40.5,7.6-60.8c1.4-11.4,2.9-22.8,4-34.2
		c0.8-9.1-2.5-15.4-9.1-17.2c-10.4-2.9-16.3-1.9-21.8,6.4c-2.8,4.1-4.9,8.5-6.4,13.2c-6.9,24.2-13.5,48.5-20.2,72.8
		c-2,5.6-3.3,11.5-3.9,17.5c-0.4,28.5,0.1,57-0.3,85.4c-0.1,6.4-1.5,12.7-4.3,18.5c-11.8,23.8-38.3,25.6-53.4,8
		c-0.8-0.9-1.4-1.9-2.1-3C286.1,371.1,265.7,373.4,248.9,355.8 M200,312.7l1.1,0.7c6.3-7,12.6-14,18.8-21.1
		c5.9-6.9,11.6-13.9,17.3-20.9c0.7-0.8,1.1-1.7,1.2-2.7c-0.3-15,0.8-30.1-1.7-45.1c-4.4-26.6-8-53.3-11.9-80c-1.3-9-2.5-18-7.3-26
		c-5.4-9.1-14-10.7-22.2-4c-8.1,6.5-10.1,15.2-8.9,25.2c1.1,9.2,1.5,18.4,2.2,27.6c1.4,18.5,2.9,37,4.3,55.5
		c1.5,19.3,3,38.6,4.5,57.9C198.2,290.7,199.1,301.7,200,312.7 M345.7,288.7c0-11.9-0.4-23.8,0.1-35.7c-0.1-7.6-2.8-15-7.6-20.8
		c-1.9-2.4-4.2-4.5-6.9-5.9c-5.1-3.1-11.7-2.4-15.9,1.9c-4.5,4.1-7.2,9.8-7.4,15.9c-0.2,29-0.2,58-0.1,87c0.2,6.1,2.8,11.9,7.3,16
		c8.3,8.4,19.3,7.1,25.8-2.7c3.2-5,4.8-10.8,4.6-16.7C345.7,314.6,345.7,301.7,345.7,288.7 M253.2,264.5c2.7,0.5,4.7,0.7,6.6,1.2
		c15.2,4.1,27.1,23.8,24.8,40.4c-1.6,8.4-5.2,16.3-10.4,23.1c-4.1,5.8-8.8,11.3-13.2,16.9c7.9,9.1,18.8,8.6,25.7-1.1
		c3.4-5,5.1-10.9,4.9-17c-0.1-25.2-0.1-50.5,0-75.7c-0.1-8.9-4-17.3-10.9-23c-5.6-5.5-14.6-5.5-20.1,0.1c-1,1-1.8,2.1-2.5,3.4
		c-1.7,2.4-2.9,5.1-3.4,8C253.8,248.6,253.7,256.5,253.2,264.5"/>
</g>
</svg>
